<svg xmlns="http://www.w3.org/2000/svg" width="52" height="72" viewBox="0 0 52 72">
  <g fill="none" transform="translate(.545 .008)">
    <path fill="#5C9424" d="M7.33562566,6.5 C9.61562566,4.164 12.7976257,2.711 16.3186257,2.711 C19.8406257,2.711 23.0236257,4.164 25.3046257,6.5 C23.0236257,8.836 19.8416257,10.287 16.3186257,10.287 C12.7976257,10.287 9.61562566,8.836 7.33562566,6.5 Z"/>
    <path fill="#5C9424" d="M7.88262566,1.42108547e-14 C7.51762566,2.265 7.31962566,4.585 7.31962566,6.952 C7.31962566,22.85 15.9026257,36.738 28.6786257,44.257 C12.5266257,38.487 0.810625655,23.394 0.0156256552,5.452 C2.38562566,3.317 5.02962566,1.485 7.88262566,1.42108547e-14 Z"/>
    <path fill="#E94884" d="M50.5986257,45.367 C50.5226257,42.822 50.0606257,40.264 49.1906257,37.786 C48.6496257,36.246 47.9536257,34.734 47.0926257,33.277 C40.3566257,21.87 26.0696257,17.699 14.3496257,23.346 C15.0476257,25.125 15.8596257,26.844 16.7726257,28.502 C19.3526257,27.252 22.2466257,26.551 25.3056257,26.551 C36.1256257,26.551 44.8986257,35.321 44.8986257,46.141 C44.8986257,56.961 36.1256257,65.734 25.3056257,65.734 C14.4846257,65.734 5.71262566,56.962 5.71262566,46.141 C5.71262566,41.883 7.07562566,37.944 9.38362566,34.731 C7.98762566,33.387 6.67162566,31.961 5.46562566,30.442 C-0.839374345,38.408 -1.95837434,49.743 3.52162566,59.012 C10.6296257,71.043 26.1466257,75.037 38.1776257,67.93 C44.6466257,64.109 48.7866257,57.856 50.1316257,51.021 C50.4956257,49.166 50.6556257,47.27 50.5986257,45.367 Z"/>
    <path fill="#E94884" d="M30.7626257,55.429 C23.7806257,59.459 15.0646257,57.744 10.0726257,51.757 C10.3916257,52.626 10.7836257,53.48 11.2616257,54.308 C15.7696257,62.119 25.7556257,64.793 33.5656257,60.285 C41.3736257,55.776 44.0496257,45.79 39.5416257,37.982 C39.0636257,37.153 38.5206257,36.385 37.9286257,35.675 C40.6166257,42.993 37.7426257,51.398 30.7626257,55.429 Z"/>
  </g>
</svg>
